<?xml version="1.0" standalone="no"?>
<!DOCTYPE svg PUBLIC "-//W3C//DTD SVG 20010904//EN"
 "http://www.w3.org/TR/2001/REC-SVG-20010904/DTD/svg10.dtd">
<svg version="1.0" xmlns="http://www.w3.org/2000/svg"
 width="152.000000pt" height="152.000000pt" viewBox="0 0 152.000000 152.000000"
 preserveAspectRatio="xMidYMid meet">
<metadata>
Created by potrace 1.11, written by Peter Selinger 2001-2013
</metadata>
<g transform="translate(0.000000,152.000000) scale(0.100000,-0.100000)"
fill="#000000" stroke="none">
<path d="M624 1494 c-113 -23 -180 -50 -274 -110 -178 -114 -293 -288 -336
-504 -12 -61 -10 -203 3 -260 7 -30 15 -64 17 -75 9 -44 65 -167 79 -173 4 -2
7 -8 7 -14 0 -17 89 -126 131 -160 22 -18 52 -43 67 -56 28 -23 141 -84 177
-95 11 -3 45 -13 75 -22 84 -25 267 -28 361 -5 339 83 570 366 584 716 10 276
-157 559 -405 684 -66 33 -157 65 -215 75 -72 13 -209 12 -271 -1z"/>
</g>
</svg>
